<svg xmlns="http://www.w3.org/2000/svg" viewBox="0 0 426.89 705.02"><g id="Layer_1" data-name="Layer 1"><path d="M474.9,298.43l.08,39.48c-37.48,1.43-311.27.83-320.17-.76V298.38H102.23v80.09H262.14V498H368.58V381.42c2.32-4.2,5.74-3.18,8.78-3.18q71.44,0,142.88,0h8.2V298.43H474.9" transform="translate(-101.79 -40.75)"/><path d="M351.78,560.87A60.28,60.28,0,0,1,366.64,586a48.15,48.15,0,0,1,2.06,12.54c-.17,48.88-.1,97.76-.1,147.2H264.48l-2.61-2.61v-31c0-36.2-.2-72.4.1-108.59.13-16.28,5.39-30.76,17.69-42.2,3.71-3.46,7.8-7.68,14.54-10.91a47.82,47.82,0,0,1,15.3-4.24,54,54,0,0,1,26.89,4.45A55.59,55.59,0,0,1,351.78,560.87Z" transform="translate(-101.79 -40.75)"/><path d="M435.3,545l40.06-60.08V399.48h53.32v108c0,11.57.06,11.61-5.86,20.44q-15.77,23.49-31.67,46.9a20,20,0,0,1-2.32,2.35V744.66a16.36,16.36,0,0,1-5-4.48q-17.7-26.46-35.2-53c-4.45-6.73-8.84-13.5-13.34-20.37Z" transform="translate(-101.79 -40.75)"/><path d="M197.08,665.08,144.15,744.3V580.81L102,517.74V399.58H155v84q21,31.59,42.13,63.33Z" transform="translate(-101.79 -40.75)"/><path d="M315.62,40.75c5.79,17.72,11.75,36.18,17.42,53.19q9.06,27.16,18.42,54.24c4.76,13.88,12.44,38.71,17.14,52.61" transform="translate(-101.79 -40.75)"/><path d="M368.6,200.79V279H261.87l-.17-78.18c6-17.76,16.49-50.53,22.78-68.19C289,120,293.3,107.42,297.4,94.73c5.12-15.88,12.84-38.19,18.22-54" transform="translate(-101.79 -40.75)"/><path d="M101.79,199.05V278.7h53.36V199.05" transform="translate(-101.79 -40.75)"/><path d="M368.6,200.79" transform="translate(-101.79 -40.75)"/><path d="M261.7,200.79" transform="translate(-101.79 -40.75)"/><polyline points="0 158.3 26.61 81.87 53.36 158.3"/><path d="M475.08,199.18v79.65h53.36V199.18" transform="translate(-101.79 -40.75)"/><polyline points="373.29 158.43 399.9 82 426.65 158.43"/></g></svg>